<svg xmlns="http://www.w3.org/2000/svg" xmlns:xlink="http://www.w3.org/1999/xlink" xmlns:inkscape="http://www.inkscape.org/namespaces/inkscape" version="1.1" width="824.39999" height="574.3775" viewBox="0 0 824.39999 574.3775">
<defs>
<clipPath id="clip_1">
<path transform="matrix(1,0,0,-1,-542.3,835.2)" d="M542.3 260.8225H1366.7V835.2H542.3Z" clip-rule="evenodd"/>
</clipPath>
<clipPath id="clip_2">
<path transform="matrix(1,0,0,-1,-542.3,835.2)" d="M0 1080H1920V0H0Z"/>
</clipPath>
<path id="font_3_101" d="M.07600403 0V.68600466H.30299378L.40100099 .3350067C.40499879 .32233177 .40899659 .30732728 .41299439 .2899933 .41700236 .27266947 .4211731 .25550334 .4255066 .23849488 .4298401 .22149658 .43333946 .20632935 .43600465 .19299317H.44400025C.44533286 .20433553 .44766236 .21783956 .45098878 .23350525 .45432536 .24917095 .45799256 .26600138 .46199037 .28399659 .46599833 .30200196 .4703369 .31933595 .4750061 .33599855L.57299807 .68600466H.79600527V0H.6490021V.32499696C.6490021 .35499574 .64916488 .38516236 .64949038 .41549684 .64982607 .4458313 .65049239 .47233073 .65148928 .49499513 .65249636 .5176697 .6529999 .53233847 .6529999 .53900149H.6450043C.6436717 .53166708 .6405029 .518163 .63549807 .49848939 .63050338 .4788259 .62516787 .45799256 .6194916 .43598939 .6138255 .41399638 .6086629 .39499919 .6040039 .3789978L.49699403 0H.3670044L.2590027 .37800599C.25500489 .3920034 .25050355 .40849815 .24549866 .42749024 .24050395 .44649253 .23583985 .4661611 .23150635 .48649598 .22717285 .5068309 .22300212 .5243327 .21899414 .53900149H.21099854C.21166992 .5209961 .21233623 .49949137 .21299744 .4744873 .21366883 .4494934 .21433513 .42382813 .21499634 .39749146 .21566773 .37116496 .21600342 .34700013 .21600342 .32499696V0H.07600403Z"/>
<path id="font_3_42" d="M.07600403 0V.68600466H.6239929V.56399539H.22599793V.41099549H.5780029V.2899933H.22599793V.1230011H.6300049V0H.07600403Z"/>
<path id="font_3_36" d="M.07600403 0V.68600466H.3560028C.42733256 .68600466 .48799644 .6736705 .5379944 .6490021 .5880025 .6243337 .62650558 .5868327 .6535034 .536499 .6805013 .48616538 .69400027 .42166648 .69400027 .34300233 .69400027 .2649994 .6805013 .20066326 .6535034 .1499939 .62650558 .09933472 .5880025 .06167094 .5379944 .037002565 .48799644 .0123341879 .42733256 0 .3560028 0H.07600403M.2250061 .1230011H.35499574C.3849945 .1230011 .41166178 .1273346 .43499757 .13600159 .45833335 .14466858 .47766624 .15750122 .49299623 .17449951 .50833639 .1914978 .5200043 .21282959 .5279999 .23849488 .5359955 .26416017 .5399933 .29399619 .5399933 .32800294V.3580017C.5399933 .3919983 .5359955 .42182923 .5279999 .4474945 .5200043 .4731598 .50833639 .49449159 .49299623 .51148989 .47766624 .52849838 .45833335 .54149886 .43499757 .55049136 .41166178 .559494 .3849945 .56399539 .35499574 .56399539H.2250061V.1230011Z"/>
<path id="font_3_73" d="M.07600403 0V.68600466H.2250061V0H.07600403Z"/>
<path id="font_3_30" d="M.3829956-.011993408C.31166587-.011993408 .2506663 .00050354006 .19999695 .025497437 .14932759 .050501508 .110824588 .08933512 .084487918 .14199829 .05816142 .19466146 .04499817 .2616628 .04499817 .34300233 .04499817 .46299745 .0744985 .5521596 .13349915 .6104889 .1924998 .6688283 .27566529 .69799807 .3829956 .69799807 .44166056 .69799807 .49432374 .6879985 .5409851 .66799929 .5876567 .64800009 .6244914 .6180013 .65148928 .5780029 .6784973 .5380046 .69200137 .4876709 .69200137 .42700196H.54200747C.54200747 .45900474 .5355072 .4860026 .5225067 .5079956 .5095062 .5299988 .49117027 .5468343 .46749879 .5585022 .4438375 .5701701 .41633607 .576004 .3849945 .576004 .34233094 .576004 .30716453 .56766769 .27949525 .5509949 .25183616 .5343323 .23150635 .5098317 .21850586 .4774933 .20550537 .445165 .19900513 .40566508 .19900513 .35899354V.32800294C.19900513 .27999879 .20566814 .23982747 .21899414 .20748902 .23233032 .17516072 .25249736 .15082805 .27949525 .13449097 .3065033 .11816406 .3413391 .11000061 .3840027 .11000061 .41733805 .11000061 .44633485 .11566671 .47099305 .1269989 .4956614 .1383311 .5146637 .15499878 .5279999 .17700196 .54133608 .19900513 .54800418 .226003 .54800418 .2579956H.69200137C.69200137 .19733684 .678833 .14700318 .65249636 .10699463 .62616989 .066996257 .58967086 .037165326 .54299929 .017501831 .4963379-.0021616619 .44300334-.011993408 .3829956-.011993408Z"/>
<path id="font_3_1" d="M.005996704 0 .27000428 .68600466H.45399476L.7180023 0H.55700686L.5079956 .1349945H.20899964L.16000366 0H.005996704M.2519989 .25500489H.46499635L.40400697 .42399598C.40133158 .43133036 .39816285 .4401652 .39450074 .4505005 .39083863 .46083579 .38700358 .47233583 .3829956 .4850006 .3789978 .4976654 .37516276 .51016238 .37149049 .52249148 .36782838 .53483077 .364329 .5460002 .36099244 .55599978H.35499574C.3516693 .54333499 .34733583 .52849838 .34199525 .51148989 .33666484 .49449159 .33132936 .47815959 .32598878 .4624939 .32065837 .44682823 .31632997 .43399558 .31300355 .42399598L.2519989 .25500489Z"/>
<path id="font_3_93" d="M.07600403 0V.68600466H.2250061V.1269989H.57099917V0H.07600403Z"/>
<path id="font_3_619" d=""/>
<path id="font_3_29" d="M.07600403 0V.68600466H.46800233C.50400289 .68600466 .536499 .67900088 .5654907 .6649933 .5944926 .6509959 .6173248 .63132736 .6339874 .60598757 .6506602 .58065798 .6589966 .5509949 .6589966 .5169983 .6589966 .4896647 .65399679 .46533204 .6439972 .44400025 .6339976 .42266847 .62049868 .40499879 .60350039 .3909912 .5865021 .3769938 .56733706 .3666636 .54600527 .3600006V.3560028C.57133486 .3506724 .59383139 .34067283 .6134949 .32600404 .6331685 .31133525 .6488342 .29250083 .66049197 .26950074 .67215988 .24650066 .6779938 .21933492 .6779938 .18800354 .6779938 .14667256 .6684926 .1120046 .64949038 .083999637 .63049826 .05600484 .6053314 .035003663 .57398989 .020996094 .5426585 .0069986979 .5076599 0 .46899415 0H.07600403M.2250061 .12199402H.44000245C.4646708 .12199402 .48483787 .12899272 .50050356 .14299011 .51616927 .15699768 .5240021 .17866516 .5240021 .20799256 .5240021 .22532654 .52066549 .24032593 .5139923 .25299073 .5073293 .26566569 .4973297 .27550254 .48399354 .28250123 .4706675 .2894999 .45366923 .29299928 .43299867 .29299928H.2250061V.12199402M.2250061 .40899659H.42300416C.44099937 .40899659 .4561615 .41249595 .4684906 .41949464 .48082987 .42649333 .49016319 .43582664 .49649049 .4474945 .50282797 .45916239 .5059967 .4726664 .5059967 .4880066 .5059967 .5139974 .49883018 .5336609 .48449708 .5469971 .47016398 .56033328 .45132957 .56700137 .42799378 .56700137H.2250061V.40899659Z"/>
<path id="font_3_111" d="M.3959961-.011993408C.32333375-.011993408 .2606659 .0010019938 .20799256 .026992798 .15532939 .052993776 .11499532 .092325847 .08699036 .14498902 .058995565 .19766236 .04499817 .26366679 .04499817 .34300233 .04499817 .42367045 .058995565 .49016825 .08699036 .5424957 .11499532 .5948334 .15532939 .63383486 .20799256 .6595001 .2606659 .6851654 .32333375 .69799807 .3959961 .69799807 .47000123 .69799807 .53316757 .6851654 .585495 .6595001 .63783267 .63383486 .67799887 .5948334 .70599368 .5424957 .7339986 .49016825 .7480011 .42367045 .7480011 .34300233 .7480011 .26366679 .7339986 .19766236 .70599368 .14498902 .67799887 .092325847 .63783267 .052993776 .585495 .026992798 .53316757 .0010019938 .47000123-.011993408 .3959961-.011993408M.3959961 .11000061C.42867027 .11000061 .45733644 .11466471 .48199464 .12399292 .506663 .1333313 .5273285 .14733379 .5439911 .16600037 .5606639 .18466695 .57333377 .20749919 .58200076 .23449707 .5906677 .26149497 .5950012 .29232789 .5950012 .32699586V.3580017C.5950012 .3933309 .5906677 .42466227 .58200076 .45199586 .57333377 .47932945 .5606639 .5021617 .5439911 .52049258 .5273285 .5388336 .506663 .5526683 .48199464 .56199648 .45733644 .57133486 .42867027 .576004 .3959961 .576004 .3640035 .576004 .335673 .57133486 .31100465 .56199648 .28633628 .5526683 .26566569 .5388336 .24899292 .52049258 .23233032 .5021617 .21983338 .47932945 .21150208 .45199586 .20317078 .42466227 .19900513 .3933309 .19900513 .3580017V.32699586C.19900513 .29232789 .20317078 .26149497 .21150208 .23449707 .21983338 .20749919 .23233032 .18466695 .24899292 .16600037 .26566569 .14733379 .28633628 .1333313 .31100465 .12399292 .335673 .11466471 .3640035 .11000061 .3959961 .11000061Z"/>
<path id="font_3_69" d="M.07600403 0V.68600466H.2250061V.41400147H.52900698V.68600466H.6779938V0H.52900698V.28799439H.2250061V0H.07600403Z"/>
<path id="font_3_91" d="M.07600403 0V.68600466H.2250061V.37399293L.5169983 .68600466H.701004L.43899537 .40699769 .70599368 0H.5279999L.33599855 .30400086 .2250061 .20399475V0H.07600403Z"/>
<path id="font_3_102" d="M.07600403 0V.68600466H.21299744L.4889984 .31599427C.49299623 .31133525 .497996 .304835 .5039978 .29649354 .5099996 .28816224 .5156657 .27999369 .5209961 .27198792 .52633669 .2639923 .53000387 .257665 .5319977 .25300599H.53700259C.53700259 .26433818 .53700259 .27550254 .53700259 .28649903 .53700259 .2974955 .53700259 .30732728 .53700259 .31599427V.68600466H.6779938V0H.54100039L.2590027 .3789978C.2523295 .38833619 .24532573 .39867149 .23799134 .41000367 .23066712 .42133586 .22533672 .43000285 .22200012 .43600465H.21699524C.21699524 .42600505 .21699524 .4161682 .21699524 .40649415 .21699524 .39683024 .21699524 .3876648 .21699524 .3789978V0H.07600403Z"/>
<path id="font_3_63" d="M.3880005-.011993408C.27999879-.011993408 .1968282 .016835532 .13848877 .07449341 .08015951 .13216146 .050994874 .22166443 .050994874 .34300233 .050994874 .42367045 .06499227 .49016825 .09298706 .5424957 .12099203 .5948334 .16166179 .63383486 .21499634 .6595001 .2683309 .6851654 .33233134 .69799807 .40699769 .69799807 .45166526 .69799807 .4936625 .69299826 .5329895 .68299868 .57232668 .6729991 .6071625 .657664 .63749697 .6369934 .6678314 .616333 .6914978 .5904999 .7084961 .559494 .7254944 .52849838 .73399356 .4916687 .73399356 .44900514H.58299258C.58299258 .46966554 .5784912 .48799644 .5694885 .5039978 .56049606 .5199992 .5479991 .53333029 .5319977 .5439911 .5159963 .55466207 .4976603 .5626628 .47698976 .56799319 .45632936 .57333377 .43466697 .576004 .41200257 .576004 .3773346 .576004 .34700013 .5715027 .32099916 .5625 .29499818 .5534973 .27349855 .5398305 .25650025 .52149966 .23950196 .50316879 .22666931 .48033653 .21800232 .45300294 .20933533 .42566935 .20500183 .3940023 .20500183 .3580017V.32800294C.20500183 .27800498 .21233113 .2370046 .22698975 .20500183 .24165853 .17299907 .2636617 .14916484 .29299928 .13349915 .32233683 .11783346 .358668 .11000061 .4019928 .11000061 .43799339 .11000061 .46982829 .11549886 .49749757 .12649536 .5251668 .13750203 .5468343 .15333557 .5625 .17399597 .5781657 .19466655 .58599856 .22000122 .58599856 .25V.25700379H.3809967V.3710022H.73399356V0H.6360016L.6230011 .07400513C.6030019 .054667158 .58150228 .03866577 .5585022 .026000977 .53550216 .013336182 .5099996 .0038401287 .48199464-.0024871827 .45399986-.008824666 .42266847-.011993408 .3880005-.011993408Z"/>
<path id="font_3_161" d="M.24499512 0V.56100466H.024993897V.68600466H.6159973V.56100466H.39500428V0H.24499512Z"/>
<path id="font_3_146" d="M.07600403 0V.68600466H.45199586C.5026652 .68600466 .5448303 .67700198 .5784912 .6589966 .6121623 .6410014 .6373291 .61583456 .6539917 .5834961 .6706645 .5511678 .67900088 .5140025 .67900088 .47200013 .67900088 .42733256 .6690013 .38783265 .6490021 .35350038 .62900289 .3191681 .60000106 .29299928 .56199648 .2749939L.70199587 0H.53700259L.41600038 .25H.2250061V0H.07600403M.2250061 .36799623H.43200685C.46200563 .36799623 .4853363 .37716166 .5019989 .39549256 .5186615 .41383363 .5269928 .43866984 .5269928 .47000123 .5269928 .4900004 .5233256 .50716659 .5159912 .52149966 .508667 .5358327 .4980011 .54666647 .48399354 .55400088 .46999613 .56133529 .45266725 .56500247 .43200685 .56500247H.2250061V.36799623Z"/>
<clipPath id="clip_4">
<path transform="matrix(1,0,0,-1,-542.3,835.2)" d="M0 1080H1920V0H0Z"/>
</clipPath>
<path id="font_5_10" d="M.09799194 0H.6259918V.07997131H.18798828V.71484377H.09799194V0Z"/>
<path id="font_5_13" d="M.1539917 .35691834C.1539917 .52874758 .2559967 .64663699 .43099977 .64663699 .60598757 .64663699 .70799258 .52874758 .70799258 .35691834 .70799258 .18508911 .60598757 .06819153 .43099977 .06819153 .2559967 .06819153 .1539917 .18508911 .1539917 .35691834M.06399536 .35791017C.06399536 .13812256 .20098877-.01171875 .42900086-.01171875 .6579895-.01171875 .7979889 .13812256 .7979889 .35791017 .7979889 .57670596 .6579895 .7265625 .42900086 .7265625 .20098877 .7265625 .06399536 .57670596 .06399536 .35791017Z"/>
<path id="font_5_8" d="M.06399536 .356781C.06399536 .10192871 .22099304-.01171875 .3999939-.01171875 .5499878-.01171875 .6619873 .06695557 .6819916 .17988587H.69400027V0H.7839966V.36776734H.43798829V.28781129H.69400027C.68499758 .17687989 .5799866 .06794739 .41600038 .06794739 .25099183 .06794739 .1539917 .17687989 .1539917 .356781 .1539917 .5296631 .2579956 .6465912 .43099977 .6465912 .56399539 .6465912 .651001 .5786438 .68699648 .46270753L.7749939 .4857025C.7279968 .63360598 .60899356 .7265625 .42900086 .7265625 .20298767 .7265625 .06399536 .5776367 .06399536 .356781Z"/>
<path id="font_5_1" d=""/>
<path id="font_5_14" d="M.18798828 .34690858V.6348572H.44400025C.56900027 .6348572 .61698916 .5868683 .61698916 .4908905 .61698916 .39489747 .56900027 .34690858 .44400025 .34690858H.18798828M.09799194 0H.18798828V.26693727H.45700074C.621994 .26693727 .70700076 .35191346 .70700076 .4908905 .70700076 .6298523 .621994 .71484377 .45700074 .71484377H.09799194V0Z"/>
<path id="font_5_15" d="M.09799194 0H.18798828V.28793336H.43099977L.644989 0H.7609863V.011993408L.5359955 .29193116C.6599884 .30792237 .7200012 .38290406 .7200012 .500885 .7200012 .635849 .6409912 .71484377 .47999574 .71484377H.09799194V0M.18798828 .36790467V.6348572H.46798707C.58499148 .6348572 .6299896 .5948639 .6299896 .500885 .6299896 .40690614 .58599856 .36790467 .46798707 .36790467H.18798828Z"/>
<path id="font_5_9" d="M.09899902 0H.18899536V.71484377H.09899902V0Z"/>
<path id="font_5_12" d="M.09799194 0H.18499756V.40490724L.17999268 .6028595 .19198609 .6048584 .33099366 .40490724 .6230011 0H.72898867V.71484377H.6419983V.32391358L.6469879 .1259613 .6349945 .1239624 .49598695 .32391358 .21398926 .71484377H.09799194V0Z"/>
<path id="font_5_4" d="M.06399536 .35791017C.06399536 .13414002 .20698548-.01171875 .42799378-.01171875 .6199951-.01171875 .7539978 .09716797 .7859955 .2809906L.69799807 .30096437C.6749878 .15310669 .5779877 .06819153 .42999269 .06819153 .2619934 .06819153 .1539917 .18109131 .1539917 .35691834 .1539917 .53274539 .2619934 .64663699 .42999269 .64663699 .56799319 .64663699 .6619873 .5717163 .69299319 .43484498L.7809906 .45481874C.74198916 .6266632 .6119995 .7265625 .4269867 .7265625 .20599365 .7265625 .06399536 .58169558 .06399536 .35791017Z"/>
<path id="font_5_2" d="M.55400088 .25694276H.23199463L.31098939 .44389344 .3869934 .6338501H.39898683L.47499085 .44389344 .55400088 .25694276M.025985718 0H.12199402L.19699097 .17695618H.58799746L.6629944 0H.7630005L.45199586 .71484377H.33999635L.025985718 0Z"/>
<clipPath id="clip_6">
<path transform="matrix(1,0,0,-1,-542.3,835.2)" d="M0 1080H1920V0H0Z"/>
</clipPath>
</defs>
<g>
<g clip-path="url(#clip_1)">
<g clip-path="url(#clip_2)">
<path transform="matrix(1,0,0,-1,518.4511,116.66443)" d="M0 0C24.139 3.313 39.565-24.697 24.453-43.679-5.783-75.068-36.061-106.412-66.012-138.074-88.201-161.53-108.934-190.023-138.334-204.766-203.495-237.441-287.41-215.567-331.798-159.127-338.109-151.103-345.039-143.771-339.52-132.982-335.389-124.908-328.045-125.879-320.9-123.503-313.109-120.913-303.088-113.666-295.633-118.525-260.771-161.176-201.622-180.695-152.208-149.483-141.402-142.657-131.756-132.536-122.928-123.306-89.229-88.071-57.479-50.686-23.503-15.688-16.91-8.896-9.98-1.37 0 0" fill="#474441"/>
<path transform="matrix(1,0,0,-1,614.4974,101.20422)" d="M0 0C-37.772 33.583-85.59 29.617-120.289-6.007-147.909-34.363-175.044-65.193-201.988-94.379-211.012-104.154-231.369-131.485-243.564-133.402-266.204-136.961-281.999-113.008-268.895-94.021-233.97-57.204-200.634-18.835-165.755 18.016-152.677 31.834-139.837 46.203-123.618 56.477-65.655 93.192 4.308 78.658 47.602 27.268 52.481 21.476 55.54 16.482 51.897 8.885 47.936 .625 36.75 .891 28.904-2.136 19.111-5.915 14.21-13.426 3.949-4.555 2.34-3.163 1.192-1.059 0 0" fill="#474441"/>
<path transform="matrix(1,0,0,-1,628.6165,233.45374)" d="M0 0C5.416 1.04 12.063-3.895 16.993-5.6 24.623-8.241 33.82-7.844 37.766-15.884 42.919-26.384 36.003-34.603 30.06-42.662-7.843-94.061-73.937-117.493-133.56-88.125-145.543-82.222-167.62-67.568-171.583-54.422-175.916-40.049-168.492-23.102-153.998-18.323-136.089-12.418-127.888-27.033-114.181-34.732-78.342-54.861-41.357-43.159-14.959-14.65-10.918-10.286-5.892-1.132 0 0" fill="#474441"/>
<path transform="matrix(1,0,0,-1,284.81843,24.265137)" d="M0 0C38.675 3.023 81.802-11.075 108.87-39.315 135.19-66.775 105.111-102.212 78.281-83.953 73.431-80.652 68.321-74.414 62.92-70.476 28.613-45.461-15.441-46.236-47.924-74.084-52.035-77.608-56.343-84.443-61.77-85.374-69.801-86.752-77.1-80.23-84.695-77.598-90.762-75.496-97.075-76.023-101.15-70.391-109.628-58.672-95.714-47.093-87.495-39.689-64.325-18.818-31.456-2.459 0 0" fill="#474441"/>
<path transform="matrix(1,0,0,-1,173.9018,112.259708)" d="M0 0C37.849 1.876 65.676-35.686 57.621-71.668 46.161-122.854-22.348-133.02-48.041-87.528-69.193-50.075-42.549-2.109 0 0" fill="#474441"/>
<path transform="matrix(1,0,0,-1,661.175,112.24078)" d="M0 0C41.229 4.369 71.102-38.542 59.111-76.858 45.751-119.548-9.453-130.451-38.263-96.271-68.402-60.512-46.35-4.911 0 0" fill="#474441"/>
<path transform="matrix(1,0,0,-1,267.95985,444.78413)" d="M0 0V54.349C0 55.042 2.274 58.815 3.015 59.467 5.822 61.938 19.46 62.046 23.137 61.218 25.149 60.764 28.227 57.692 28.683 55.672L28.49-41.43C27.484-44.443 24.969-46.783 21.766-47.277 16.138-48.145 4.207-47.946-.367-44.364L-48.063 15.528V-40.299C-48.063-44.063-53.823-47.029-57.278-47.352-63.261-47.912-75.756-48.529-77.485-40.883L-77.141 55.326C-75.87 59.16-73.13 61.036-69.174 61.41-64.226 61.876-51.284 62.048-47.36 59.489Z" fill="#474441"/>
<path transform="matrix(1,0,0,-1,615.49569,465.4884)" d="M0 0V13.31H-21.813C-25.631 13.31-28.115 21.638-28.158 24.777-28.272 33.029-24.811 37.04-16.664 37.738-7.83 38.494 6.992 38.344 15.932 37.746 22.155 37.329 27.303 35.425 28.098 28.468 29.258 18.313 29.128-6.361 28.136-16.674 27.542-22.849 23.36-26.125 17.407-26.65 3.826-27.847-23.757-27.886-37.252-26.53-89.794-21.248-97.053 57.845-51.285 78.274-38.051 84.181-.01 84.225 15.146 82.805 26.723 81.719 27.801 75.401 26.538 64.783 25.879 59.238 23.769 56.827 18.119 56.195 2.235 54.418-27.767 60.252-40.604 52.065-54.641 43.114-56.283 17.586-44.295 6.357-42.919 5.069-34.322 0-32.905 0Z" fill="#474441"/>
<path transform="matrix(1,0,0,-1,45.21039,383.6019)" d="M0 0C20.944 2.837 47.096-1.736 68.593 .208 78.422-.957 80.768-24.438 67.126-25.717 49.716-27.35 27.798-23.383 10.968-25.757 1.559-27.083 .236-40.152 13.093-41.243 26.635-42.393 43.517-39.231 56.54-42.162 91.397-50.006 89.149-105.558 51.596-108.533 30.193-110.229 6.623-107.181-15.017-108.543-20.506-108.214-23.626-104.543-24.225-99.265-25.224-90.462-23.638-82.749-13.531-81.856 4.598-80.256 26.501-84.036 44.192-81.903 54.185-80.699 54.508-68.363 45.485-66.528 34.243-64.241 15.984-67.567 3.597-66.267-37.196-61.988-32.266-4.37 0 0" fill="#474441"/>
<path transform="matrix(1,0,0,-1,343.3824,449.9602)" d="M0 0C-.131-5.621-.757-12.345 5.137-15.198L57.854-15.721C63.503-16.481 66.62-20.635 66.614-26.255 66.612-27.897 65.974-36.126 65.659-37.191 65.258-38.553 61.578-41.66 60.108-41.992 40.099-40.838 17.176-44.115-2.497-42.057-18.469-40.386-28.428-28.696-29.606-12.969-30.513-.865-31.071 34.353-28.306 44.943-25.105 57.202-16.241 65.563-3.354 66.576 10.511 67.667 25.756 66.658 39.53 66.517 46.09 66.45 64.321 69.19 65.776 60.97 66.112 59.073 66.64 52.654 66.609 50.659 66.53 45.42 64.344 41.317 58.802 40.652 42.656 38.715 23.112 42.392 6.601 40.354-.839 38.208-.205 31.585 0 25.141H55.088C55.622 25.141 58.886 22.892 59.495 22.153 63.046 17.838 62.568 0 55.088 0Z" fill="#474441"/>
<path transform="matrix(1,0,0,-1,453.55873,457.35453)" d="M0 0V-28.468C0-28.751-2.058-32.069-2.57-32.553-5.682-35.49-18.163-35.4-22.234-34.434-26.427-33.44-28.494-28.762-28.867-24.8-29.821-14.64-29.818 6.503-28.867 16.666-28.408 21.56-25.58 26.014-20.354 26.639-4.341 28.555 18.03 23.986 33.317 26.944 44.152 29.041 44.692 46.284 32.102 47.999L-22.963 48.393C-31.189 50.925-32.609 73.213-18.858 74.685-3.806 76.297 24.923 75.429 40.208 73.853 74.353 70.332 81.568 18.598 51.038 4.073L70.539-24.476C72.103-27.713 71.708-32.142 68.225-33.841 65.005-35.412 46.09-35.346 42.947-33.585 41.743-32.91 39.861-30.668 38.882-29.517 31.564-20.915 26.508-8.502 18.856 0Z" fill="#474441"/>
<path transform="matrix(1,0,0,-1,769.29879,449.9602)" d="M0 0-11.839 30.316-24.401 0ZM16.527-38.933C13.746-36.001 12.471-29.934 10.429-26.338L-34.285-25.979C-38.341-31.155-38.438-40.892-46.262-42.1-49.04-42.529-60.498-42.572-63.067-41.993-66.178-41.29-68.635-37.485-68.627-34.381L-28.457 59.883C-27.213 62.661-25.087 65.181-22.055 66.051-19.071 66.908-6.537 67.039-3.366 66.511 1.685 65.67 4.077 60.013 6.044 55.956 19.9 27.375 30.161-3.232 43.858-31.929 45.495-36.122 43.112-41.08 38.65-41.977 33.399-43.034 20.355-42.969 16.527-38.933" fill="#474441"/>
<path transform="matrix(1,0,0,-1,149.44934,383.58003)" d="M0 0C2.582 .523 14.918 .557 17.248-.16 20.718-1.229 22.65-5.859 23.041-9.156 24.527-21.683 22.271-35.059 22.326-47.536 22.399-64.002 24.98-82.107 23.125-98.548 22.532-103.803 20.044-107.719 14.554-108.463 7.231-109.456-5.064-110.096-6.387-100.697L-6.472-7.578C-6.124-4.036-3.526-.714 0 0" fill="#474441"/>
<path transform="matrix(1,0,0,-1,670.80978,382.884)" d="M0 0C2.565 .18 11.231-.271 13.262-1.088 15.62-2.036 17.681-5.772 17.907-8.274V-100.737C17.078-105.458 14.24-108.669 9.386-109.223 2.468-110.014-9.89-110.579-10.964-101.477L-10.909-7.59C-9.381-1.98-5.373-.377 0 0" fill="#474441"/>
<path transform="matrix(1,0,0,-1,24.314942,538.69277)" d="M0 0H85.775C88.116 0 88.116-6.655 85.775-6.655H-.739C-2.816-6.655-3.728-.444 0 0" fill="#474441"/>
<path transform="matrix(1,0,0,-1,736.39389,538.69277)" d="M0 0H77.641C79.982 0 79.982-6.655 77.641-6.655H0C-1.945-6.655-2.815-.971 0 0" fill="#474441"/>
</g>
<use data-text="M" xlink:href="#font_3_101" transform="matrix(32,0,0,-32,142.97882,553.3855)" fill="#474441"/>
<use data-text="E" xlink:href="#font_3_42" transform="matrix(32,0,0,-32,172.8028,553.3855)" fill="#474441"/>
<use data-text="D" xlink:href="#font_3_36" transform="matrix(32,0,0,-32,196.5788,553.3855)" fill="#474441"/>
<use data-text="I" xlink:href="#font_3_73" transform="matrix(32,0,0,-32,222.14679,553.3855)" fill="#474441"/>
<use data-text="C" xlink:href="#font_3_30" transform="matrix(32,0,0,-32,233.69879,553.3855)" fill="#474441"/>
<use data-text="A" xlink:href="#font_3_1" transform="matrix(32,0,0,-32,258.94679,553.3855)" fill="#474441"/>
<use data-text="L" xlink:href="#font_3_93" transform="matrix(32,0,0,-32,284.0348,553.3855)" fill="#474441"/>
<use data-text=" " xlink:href="#font_3_619" transform="matrix(32,0,0,-32,304.86677,553.3855)" fill="#474441"/>
<use data-text="B" xlink:href="#font_3_29" transform="matrix(32,0,0,-32,313.05879,553.3855)" fill="#474441"/>
<use data-text="I" xlink:href="#font_3_73" transform="matrix(32,0,0,-32,338.08277,553.3855)" fill="#474441"/>
<use data-text="O" xlink:href="#font_3_111" transform="matrix(32,0,0,-32,349.63478,553.3855)" fill="#474441"/>
<use data-text="H" xlink:href="#font_3_69" transform="matrix(32,0,0,-32,376.9308,553.3855)" fill="#474441"/>
<use data-text="A" xlink:href="#font_3_1" transform="matrix(32,0,0,-32,402.97877,553.3855)" fill="#474441"/>
<use data-text="C" xlink:href="#font_3_30" transform="matrix(32,0,0,-32,427.55476,553.3855)" fill="#474441"/>
<use data-text="K" xlink:href="#font_3_91" transform="matrix(32,0,0,-32,452.93074,553.3855)" fill="#474441"/>
<use data-text="I" xlink:href="#font_3_73" transform="matrix(32,0,0,-32,478.05073,553.3855)" fill="#474441"/>
<use data-text="N" xlink:href="#font_3_102" transform="matrix(32,0,0,-32,489.60273,553.3855)" fill="#474441"/>
<use data-text="G" xlink:href="#font_3_63" transform="matrix(32,0,0,-32,515.6507,553.3855)" fill="#474441"/>
<use data-text=" " xlink:href="#font_3_619" transform="matrix(32,0,0,-32,543.2347,553.3855)" fill="#474441"/>
<use data-text="C" xlink:href="#font_3_30" transform="matrix(32,0,0,-32,551.4267,553.3855)" fill="#474441"/>
<use data-text="E" xlink:href="#font_3_42" transform="matrix(32,0,0,-32,576.8027,553.3855)" fill="#474441"/>
<use data-text="N" xlink:href="#font_3_102" transform="matrix(32,0,0,-32,600.5787,553.3855)" fill="#474441"/>
<use data-text="T" xlink:href="#font_3_161" transform="matrix(32,0,0,-32,626.62667,553.3855)" fill="#474441"/>
<use data-text="E" xlink:href="#font_3_42" transform="matrix(32,0,0,-32,649.05868,553.3855)" fill="#474441"/>
<use data-text="R" xlink:href="#font_3_146" transform="matrix(32,0,0,-32,672.83468,553.3855)" fill="#474441"/>
<g clip-path="url(#clip_4)">
<path transform="matrix(1,0,0,-1,-461.6535,-197.33783)" stroke-width="1" stroke-linecap="butt" stroke-miterlimit="10" stroke-linejoin="miter" fill="none" stroke="#474441" d="M0 0H1800.364"/>
<path transform="matrix(1,0,0,-1,-461.6535,-154.44422)" stroke-width="1" stroke-linecap="butt" stroke-miterlimit="10" stroke-linejoin="miter" fill="none" stroke="#474441" d="M0 0H1800.364"/>
</g>
<use data-text="L" xlink:href="#font_5_10" transform="matrix(14.3806,0,0,-14.3806,-457.9738,-167.74286)" fill="#474441"/>
<use data-text="O" xlink:href="#font_5_13" transform="matrix(14.3806,0,0,-14.3806,-448.07994,-167.74286)" fill="#474441"/>
<use data-text="G" xlink:href="#font_5_8" transform="matrix(14.3806,0,0,-14.3806,-435.68385,-167.74286)" fill="#474441"/>
<use data-text="O" xlink:href="#font_5_13" transform="matrix(14.3806,0,0,-14.3806,-423.00016,-167.74286)" fill="#474441"/>
<use data-text=" " xlink:href="#font_5_1" transform="matrix(14.3806,0,0,-14.3806,-410.60408,-167.74286)" fill="#474441"/>
<use data-text="P" xlink:href="#font_5_14" transform="matrix(14.3806,0,0,-14.3806,-406.7213,-167.74286)" fill="#474441"/>
<use data-text="R" xlink:href="#font_5_15" transform="matrix(14.3806,0,0,-14.3806,-395.63386,-167.74286)" fill="#474441"/>
<use data-text="I" xlink:href="#font_5_9" transform="matrix(14.3806,0,0,-14.3806,-384.0431,-167.74286)" fill="#474441"/>
<use data-text="N" xlink:href="#font_5_12" transform="matrix(14.3806,0,0,-14.3806,-379.9159,-167.74286)" fill="#474441"/>
<use data-text="C" xlink:href="#font_5_4" transform="matrix(14.3806,0,0,-14.3806,-368.02314,-167.74286)" fill="#474441"/>
<use data-text="I" xlink:href="#font_5_9" transform="matrix(14.3806,0,0,-14.3806,-355.79963,-167.74286)" fill="#474441"/>
<use data-text="P" xlink:href="#font_5_14" transform="matrix(14.3806,0,0,-14.3806,-351.67237,-167.74286)" fill="#474441"/>
<use data-text="A" xlink:href="#font_5_2" transform="matrix(14.3806,0,0,-14.3806,-340.58494,-167.74286)" fill="#474441"/>
<use data-text="L" xlink:href="#font_5_10" transform="matrix(14.3806,0,0,-14.3806,-329.25303,-167.74286)" fill="#474441"/>
<g clip-path="url(#clip_6)">
<path transform="matrix(1,0,0,-1,-461.6535,-197.33783)" stroke-width="1" stroke-linecap="butt" stroke-miterlimit="10" stroke-linejoin="miter" fill="none" stroke="#474441" d="M0 0H1800.364"/>
<path transform="matrix(1,0,0,-1,-461.6535,-154.44422)" stroke-width="1" stroke-linecap="butt" stroke-miterlimit="10" stroke-linejoin="miter" fill="none" stroke="#474441" d="M0 0H1800.364"/>
</g>
</g>
</g>
</svg>
